<svg xmlns="http://www.w3.org/2000/svg" viewBox="0 0 300 640" width="300" height="640">
  <path d="M90 110 C70 200 70 320 95 360 L205 360 C230 320 230 200 210 110 Z" fill="#6b4226"/>
  <rect x="129" y="430" width="16" height="160" rx="8" fill="#ffd9b3"/>
  <rect x="155" y="430" width="16" height="160" rx="8" fill="#ffd9b3"/>
  <ellipse cx="137" cy="598" rx="20" ry="12" fill="#ff8a3d"/>
  <ellipse cx="163" cy="598" rx="20" ry="12" fill="#ff8a3d"/>
  <path d="M150 235 L120 250 L96 470 L204 470 L180 250 Z" fill="#d8c4ff"/>
  <path d="M150 235 L120 250 L96 470 L150 470 Z" fill="#cbb3ff"/>
  <rect x="96" y="250" width="15" height="120" rx="7" fill="#ffd9b3" transform="rotate(12 103 250)"/>
  <rect x="189" y="250" width="15" height="120" rx="7" fill="#ffd9b3" transform="rotate(-12 196 250)"/>
  <rect x="140" y="200" width="20" height="30" rx="8" fill="#ffd9b3"/>
  <circle cx="150" cy="150" r="55" fill="#ffd9b3"/>
  <path d="M95 150 C90 95 130 70 150 70 C170 70 210 95 205 150 C205 120 180 105 150 108 C120 105 95 120 95 150 Z" fill="#6b4226"/>
  <ellipse cx="132" cy="150" rx="7" ry="9" fill="#3a2a1a"/>
  <ellipse cx="168" cy="150" rx="7" ry="9" fill="#3a2a1a"/>
  <circle cx="134" cy="147" r="2.5" fill="#fff"/>
  <circle cx="170" cy="147" r="2.5" fill="#fff"/>
  <circle cx="118" cy="168" r="9" fill="#ffb3a7" opacity="0.7"/>
  <circle cx="182" cy="168" r="9" fill="#ffb3a7" opacity="0.7"/>
  <path d="M134 175 Q150 190 166 175" stroke="#c0392b" stroke-width="3" fill="none" stroke-linecap="round"/>
</svg>
